<svg width="32" height="32" viewBox="0 0 32 32" fill="none" xmlns="http://www.w3.org/2000/svg">
<path d="M19.7525 26.4857C20.0331 27.0765 19.7837 27.7816 19.1944 28.0651C18.2533 28.5178 17.2603 28.8533 16.2375 29.0626H15.7625C5.50252 26.9844 4.44574 14.8126 5.31252 8.70903C5.3526 8.37802 5.52924 8.07816 5.79938 7.88371C6.07102 7.69074 6.41095 7.61801 6.73752 7.68777C8.27534 7.96238 9.85766 7.8184 11.3199 7.27065C12.7821 6.7244 14.0705 5.7937 15.0502 4.57652C15.2788 4.28707 15.6305 4.11935 16.0002 4.12527C16.3742 4.12527 16.7261 4.30191 16.9502 4.60027C17.9328 5.81152 19.2228 6.73629 20.6849 7.27958C22.147 7.82286 23.7278 7.96388 25.2627 7.68777C25.5893 7.61801 25.9292 7.69074 26.2009 7.88371C26.471 8.07816 26.6477 8.37801 26.6877 8.70903C27.0499 11.7564 26.9386 14.8411 26.3552 17.8526C26.2246 18.5087 25.5863 18.9332 24.9302 18.8026C24.2741 18.6719 23.8496 18.0337 23.9802 17.3776C24.4285 15.0308 24.568 12.6352 24.3959 10.2526C21.2697 10.4485 18.2106 9.28921 16.0001 7.07009C13.7662 9.28181 10.6934 10.4307 7.55691 10.2288C7.27191 13.8745 7.21254 24.7163 16.0001 26.6874C16.7498 26.5256 17.4786 26.2777 18.1733 25.9511C18.7567 25.6676 19.4602 25.9051 19.7526 26.4855L19.7525 26.4857ZM28.16 17.544L22.0565 23.6954L19.3252 20.0379C18.9318 19.5139 18.1867 19.407 17.6627 19.8004C17.1387 20.1938 17.0318 20.9389 17.4252 21.4629L20.9877 26.2129C21.194 26.489 21.5102 26.6627 21.8546 26.6879H21.9377C22.2554 26.6864 22.5582 26.5588 22.7808 26.3316L29.9058 19.2066C30.3675 18.7405 30.366 17.988 29.8999 17.5263C29.4338 17.0647 28.6812 17.0662 28.2196 17.5323L28.16 17.544Z" fill="black"/>
</svg>
